<svg width="26" height="26" viewBox="0 0 26 26" fill="none" xmlns="http://www.w3.org/2000/svg">
<path fill-rule="evenodd" clip-rule="evenodd" d="M22.9531 2.03125H21.7344V0H19.7031V2.03125H6.29688V0H4.26562V2.03125H3.04688C1.36683 2.03125 0 3.39808 0 5.07812V22.9531C0 24.6332 1.36683 26 3.04688 26H22.9531C24.6332 26 26 24.6332 26 22.9531V5.07812C26 3.39808 24.6332 2.03125 22.9531 2.03125ZM23.9688 22.9531C23.9688 23.5131 23.5131 23.9688 22.9531 23.9688H3.04688C2.48686 23.9688 2.03125 23.5131 2.03125 22.9531V9.54688H23.9688V22.9531ZM2.03125 7.51562H23.9688V5.07812C23.9688 4.51811 23.5131 4.0625 22.9531 4.0625H21.7344V6.09375H19.7031V4.0625H6.29688V6.09375H4.26562V4.0625H3.04688C2.48686 4.0625 2.03125 4.51811 2.03125 5.07812V7.51562Z" fill="#243070"/>
<rect x="3.71436" y="11.6738" width="2.12245" height="2.12245" fill="#243070"/>
<rect x="7.95898" y="11.6738" width="2.12245" height="2.12245" fill="#243070"/>
<rect x="11.939" y="11.6738" width="2.12245" height="2.12245" fill="#243070"/>
<rect x="15.9185" y="11.6738" width="2.12245" height="2.12245" fill="#243070"/>
<rect x="20.1631" y="11.6738" width="2.12245" height="2.12245" fill="#243070"/>
<rect x="3.71436" y="15.6523" width="2.12245" height="2.12245" fill="#243070"/>
<rect x="7.95898" y="15.6523" width="2.12245" height="2.12245" fill="#243070"/>
<rect x="11.939" y="15.6523" width="2.12245" height="2.12245" fill="#243070"/>
<rect x="15.9185" y="15.6523" width="2.12245" height="2.12245" fill="#243070"/>
<rect x="3.71436" y="19.6328" width="2.12245" height="2.12245" fill="#243070"/>
<rect x="7.95898" y="19.6328" width="2.12245" height="2.12245" fill="#243070"/>
<rect x="11.939" y="19.6328" width="2.12245" height="2.12245" fill="#243070"/>
<rect x="15.9185" y="19.6328" width="2.12245" height="2.12245" fill="#243070"/>
<rect x="20.1631" y="15.6523" width="2.12245" height="2.12245" fill="#243070"/>
</svg>
