<svg width="22" height="22" viewBox="0 0 22 22" fill="none" xmlns="http://www.w3.org/2000/svg">
<path d="M7.15385 19.4615L1 21L2.53846 16.3846V2.53846C2.53846 2.13043 2.70055 1.73912 2.98906 1.4506C3.27758 1.16209 3.66889 1 4.07692 1H19.4615C19.8695 1 20.2609 1.16209 20.5494 1.4506C20.8378 1.73912 21 2.13043 21 2.53846V17.9231C21 18.3311 20.8378 18.7225 20.5494 19.0109C20.2609 19.2994 19.8695 19.4615 19.4615 19.4615H7.15385Z" stroke="#77838F" stroke-width="1.91025" stroke-linecap="round" stroke-linejoin="round"/>
<path d="M11.7694 10.6149C11.557 10.6149 11.3848 10.4427 11.3848 10.2303C11.3848 10.0179 11.557 9.8457 11.7694 9.8457" stroke="#77838F" stroke-width="1.91025" stroke-linecap="round" stroke-linejoin="round"/>
<path d="M11.7695 10.6149C11.9819 10.6149 12.1541 10.4427 12.1541 10.2303C12.1541 10.0179 11.9819 9.8457 11.7695 9.8457" stroke="#77838F" stroke-width="1.91025" stroke-linecap="round" stroke-linejoin="round"/>
<path d="M7.53842 10.6149C7.32601 10.6149 7.15381 10.4427 7.15381 10.2303C7.15381 10.0179 7.32601 9.8457 7.53842 9.8457" stroke="#77838F" stroke-width="1.91025" stroke-linecap="round" stroke-linejoin="round"/>
<path d="M7.53809 10.6149C7.7505 10.6149 7.9227 10.4427 7.9227 10.2303C7.9227 10.0179 7.7505 9.8457 7.53809 9.8457" stroke="#77838F" stroke-width="1.91025" stroke-linecap="round" stroke-linejoin="round"/>
<path d="M15.9994 10.6149C15.7869 10.6149 15.6147 10.4427 15.6147 10.2303C15.6147 10.0179 15.7869 9.8457 15.9994 9.8457" stroke="#77838F" stroke-width="1.91025" stroke-linecap="round" stroke-linejoin="round"/>
<path d="M15.9995 10.6149C16.212 10.6149 16.3841 10.4427 16.3841 10.2303C16.3841 10.0179 16.212 9.8457 15.9995 9.8457" stroke="#77838F" stroke-width="1.91025" stroke-linecap="round" stroke-linejoin="round"/>
</svg>
