<svg width="27" height="23" viewBox="0 0 27 23" fill="none" xmlns="http://www.w3.org/2000/svg">
<path d="M16.75 1.00586C20.1695 1.14586 22.8983 3.96278 22.8983 7.41669C22.8986 8.58829 22.5781 9.73761 21.9717 10.74C21.3652 11.7424 20.4958 12.5596 19.4578 13.103C22.3302 13.9722 24.5783 16.0646 25.437 18.6919C25.8885 20.0733 24.8963 21.3624 23.4583 21.5748C22.6837 21.6867 21.9054 21.7727 21.125 21.8326" stroke="#243070" stroke-width="1.86667" stroke-linecap="round" stroke-linejoin="round"/>
<path d="M13.0413 13.103C14.0793 12.5596 14.9487 11.7424 15.5552 10.74C16.1617 9.73762 16.4822 8.58828 16.4818 7.41667C16.4818 3.87292 13.6089 1 10.0652 1C6.5214 1 3.64849 3.87292 3.64849 7.41667C3.64819 8.58826 3.96867 9.73758 4.57517 10.74C5.18167 11.7424 6.05103 12.5596 7.08899 13.103C4.21665 13.9722 1.96907 16.0646 1.10982 18.6919C0.658902 20.0733 1.65115 21.3624 3.08849 21.5742C4.5719 21.7935 6.82882 22 10.0652 22C13.3021 22 15.559 21.7935 17.0418 21.5742C18.4797 21.3624 19.472 20.0733 19.0205 18.6925C18.1618 16.0646 15.9137 13.9716 13.0413 13.103Z" stroke="#243070" stroke-width="1.86667" stroke-linecap="round" stroke-linejoin="round"/>
</svg>
