<svg width="26" height="26" viewBox="0 0 26 26" fill="none" xmlns="http://www.w3.org/2000/svg">
<path fill-rule="evenodd" clip-rule="evenodd" d="M20.9993 1.23212C21.4556 0.780912 22.2366 1.02319 22.3506 1.65128L22.6532 3.32053L24.3414 3.61984C24.9765 3.73246 25.2216 4.50476 24.7653 4.95596L23.0226 6.67916C24.2516 8.53966 24.9661 10.7628 24.9661 13.1508C24.9661 19.695 19.6011 25 12.983 25C6.36499 25 1 19.695 1 13.1508C1 6.60668 6.36499 1.30162 12.983 1.30162C15.2574 1.30162 17.3837 1.92813 19.1952 3.01615L20.9993 1.23212ZM21.2199 2.87591L19.6503 4.42802L19.9641 5.97962L21.5332 6.28995L23.1028 4.73782L22.0534 4.55177C21.7245 4.49344 21.467 4.23887 21.408 3.91363L21.2199 2.87591ZM22.028 7.58556C23.0463 9.20036 23.6346 11.1076 23.6346 13.1508C23.6346 18.9678 18.8658 23.6834 12.983 23.6834C7.10033 23.6834 2.33145 18.9678 2.33145 13.1508C2.33145 7.33382 7.10033 2.6182 12.983 2.6182C14.9226 2.6182 16.7411 3.1308 18.3074 4.02646C18.27 4.149 18.2626 4.28051 18.2887 4.40985L18.7192 6.53769L16.2431 8.9861C15.3422 8.29552 14.2112 7.88447 12.983 7.88447C10.0417 7.88447 7.65724 10.2423 7.65724 13.1508C7.65724 16.0592 10.0417 18.4171 12.983 18.4171C15.9243 18.4171 18.3088 16.0592 18.3088 13.1508C18.3088 11.9312 17.8896 10.8085 17.1859 9.9158L19.8345 7.29666L21.5516 7.63623C21.7143 7.6684 21.8803 7.64933 22.028 7.58556ZM15.2915 9.92708L12.5217 12.6659C12.2618 12.923 12.2618 13.3397 12.5217 13.5968C12.7817 13.854 13.2033 13.854 13.4633 13.5968L16.2347 10.8564C16.7023 11.5031 16.9774 12.2951 16.9774 13.1508C16.9774 15.3322 15.1891 17.1005 12.983 17.1005C10.777 17.1005 8.98869 15.3322 8.98869 13.1508C8.98869 10.9694 10.777 9.20105 12.983 9.20105C13.843 9.20105 14.6396 9.46983 15.2915 9.92708Z" fill="#243070"/>
<path d="M20.9993 1.23212L20.8587 1.08991V1.08991L20.9993 1.23212ZM22.3506 1.65128L22.5474 1.6156L22.5474 1.61557L22.3506 1.65128ZM22.6532 3.32053L22.4564 3.35621L22.4813 3.49316L22.6183 3.51746L22.6532 3.32053ZM24.3414 3.61984L24.3763 3.42291L24.3763 3.42291L24.3414 3.61984ZM24.7653 4.95596L24.9059 5.09817L24.9059 5.09817L24.7653 4.95596ZM23.0226 6.67916L22.8819 6.53694L22.7652 6.65239L22.8557 6.7894L23.0226 6.67916ZM19.1952 3.01615L19.0922 3.1876L19.2254 3.26758L19.3358 3.15836L19.1952 3.01615ZM21.2199 2.87591L21.4167 2.84023L21.349 2.46696L21.0793 2.73369L21.2199 2.87591ZM19.6503 4.42802L19.5096 4.28581L19.4328 4.36177L19.4542 4.46767L19.6503 4.42802ZM19.9641 5.97962L19.7681 6.01927L19.7945 6.14995L19.9253 6.17582L19.9641 5.97962ZM21.5332 6.28995L21.4944 6.48615L21.5984 6.50673L21.6738 6.43217L21.5332 6.28995ZM23.1028 4.73782L23.2435 4.88004L23.5182 4.60835L23.1378 4.5409L23.1028 4.73782ZM22.0534 4.55177L22.0185 4.74869L22.0185 4.74869L22.0534 4.55177ZM21.408 3.91363L21.2113 3.94931L21.2113 3.94932L21.408 3.91363ZM18.3074 4.02646L18.4987 4.08487L18.5453 3.93212L18.4067 3.85285L18.3074 4.02646ZM18.2887 4.40985L18.0927 4.44941L18.0927 4.44951L18.2887 4.40985ZM18.7192 6.53769L18.8598 6.67991L18.9366 6.60394L18.9152 6.49804L18.7192 6.53769ZM16.2431 8.9861L16.1214 9.14482L16.2598 9.25088L16.3837 9.12831L16.2431 8.9861ZM17.1859 9.9158L17.0453 9.77359L16.9182 9.89925L17.0288 10.0396L17.1859 9.9158ZM19.8345 7.29666L19.8733 7.10046L19.7693 7.07989L19.6939 7.15445L19.8345 7.29666ZM21.5516 7.63623L21.5128 7.83243L21.5128 7.83244L21.5516 7.63623ZM12.5217 12.6659L12.3811 12.5237L12.381 12.5237L12.5217 12.6659ZM12.5217 13.5968L12.381 13.739L12.3811 13.7391L12.5217 13.5968ZM13.4633 13.5968L13.3227 13.4546L13.4633 13.5968ZM16.2347 10.8564L16.3968 10.7392L16.26 10.5501L16.0941 10.7142L16.2347 10.8564ZM21.1399 1.37433C21.4839 1.03423 22.069 1.21996 22.1538 1.68699L22.5474 1.61557C22.4042 0.826423 21.4273 0.527596 20.8587 1.08991L21.1399 1.37433ZM22.1538 1.68696L22.4564 3.35621L22.85 3.28485L22.5474 1.6156L22.1538 1.68696ZM22.6183 3.51746L24.3064 3.81677L24.3763 3.42291L22.6881 3.1236L22.6183 3.51746ZM24.3064 3.81677C24.7847 3.90158 24.9635 4.47872 24.6247 4.81374L24.9059 5.09817C25.4797 4.53081 25.1682 3.56334 24.3763 3.42291L24.3064 3.81677ZM24.6247 4.81374L22.8819 6.53694L23.1632 6.82138L24.9059 5.09817L24.6247 4.81374ZM22.8557 6.7894C24.0639 8.61831 24.7661 10.8033 24.7661 13.1508H25.1661C25.1661 10.7223 24.4394 8.46101 23.1894 6.56892L22.8557 6.7894ZM24.7661 13.1508C24.7661 19.5824 19.4928 24.8 12.983 24.8V25.2C19.7095 25.2 25.1661 19.8075 25.1661 13.1508H24.7661ZM12.983 24.8C6.47333 24.8 1.2 19.5824 1.2 13.1508H0.8C0.8 19.8075 6.25666 25.2 12.983 25.2V24.8ZM1.2 13.1508C1.2 6.71925 6.47333 1.50162 12.983 1.50162V1.10162C6.25666 1.10162 0.8 6.49411 0.8 13.1508H1.2ZM12.983 1.50162C15.2202 1.50162 17.3111 2.11779 19.0922 3.1876L19.2982 2.8447C17.4564 1.73846 15.2946 1.10162 12.983 1.10162V1.50162ZM19.3358 3.15836L21.1399 1.37433L20.8587 1.08991L19.0546 2.87394L19.3358 3.15836ZM21.0793 2.73369L19.5096 4.28581L19.7909 4.57023L21.3605 3.01812L21.0793 2.73369ZM19.4542 4.46767L19.7681 6.01927L20.1601 5.93997L19.8463 4.38837L19.4542 4.46767ZM19.9253 6.17582L21.4944 6.48615L21.572 6.09375L20.0029 5.78342L19.9253 6.17582ZM21.6738 6.43217L23.2435 4.88004L22.9622 4.59561L21.3926 6.14774L21.6738 6.43217ZM23.1378 4.5409L22.0883 4.35484L22.0185 4.74869L23.0679 4.93475L23.1378 4.5409ZM22.0883 4.35484C21.8406 4.31091 21.6487 4.11969 21.6048 3.87794L21.2113 3.94932C21.2854 4.35805 21.6084 4.67597 22.0185 4.74869L22.0883 4.35484ZM21.6048 3.87796L21.4167 2.84023L21.0231 2.91158L21.2113 3.94931L21.6048 3.87796ZM21.8588 7.69224C22.8576 9.27614 23.4346 11.1466 23.4346 13.1508H23.8346C23.8346 11.0686 23.2349 9.12457 22.1971 7.47888L21.8588 7.69224ZM23.4346 13.1508C23.4346 18.8553 18.7574 23.4834 12.983 23.4834V23.8834C18.9741 23.8834 23.8346 19.0804 23.8346 13.1508H23.4346ZM12.983 23.4834C7.20866 23.4834 2.53145 18.8553 2.53145 13.1508H2.13145C2.13145 19.0804 6.99199 23.8834 12.983 23.8834V23.4834ZM2.53145 13.1508C2.53145 7.44638 7.20866 2.8182 12.983 2.8182V2.4182C6.99199 2.4182 2.13145 7.22125 2.13145 13.1508H2.53145ZM12.983 2.8182C14.8869 2.8182 16.6713 3.32129 18.2081 4.20008L18.4067 3.85285C16.8108 2.9403 14.9582 2.4182 12.983 2.4182V2.8182ZM18.1161 3.96806C18.0691 4.12188 18.0599 4.28705 18.0927 4.44941L18.4848 4.3703C18.4653 4.27397 18.4708 4.17611 18.4987 4.08487L18.1161 3.96806ZM18.0927 4.44951L18.5232 6.57735L18.9152 6.49804L18.4848 4.3702L18.0927 4.44951ZM18.5786 6.39548L16.1025 8.84388L16.3837 9.12831L18.8598 6.67991L18.5786 6.39548ZM16.3648 8.82737C15.4301 8.11085 14.2565 7.68447 12.983 7.68447V8.08447C14.1658 8.08447 15.2544 8.4802 16.1214 9.14482L16.3648 8.82737ZM12.983 7.68447C9.93335 7.68447 7.45724 10.1297 7.45724 13.1508H7.85724C7.85724 10.3549 10.15 8.08447 12.983 8.08447V7.68447ZM7.45724 13.1508C7.45724 16.1718 9.93335 18.6171 12.983 18.6171V18.2171C10.15 18.2171 7.85724 15.9467 7.85724 13.1508H7.45724ZM12.983 18.6171C16.0327 18.6171 18.5088 16.1718 18.5088 13.1508H18.1088C18.1088 15.9467 15.816 18.2171 12.983 18.2171V18.6171ZM18.5088 13.1508C18.5088 11.8845 18.0733 10.7185 17.343 9.79198L17.0288 10.0396C17.7058 10.8984 18.1088 11.9779 18.1088 13.1508H18.5088ZM17.3265 10.058L19.9752 7.43887L19.6939 7.15445L17.0453 9.77359L17.3265 10.058ZM19.7957 7.49286L21.5128 7.83243L21.5904 7.44003L19.8733 7.10046L19.7957 7.49286ZM21.5128 7.83244C21.7157 7.87255 21.9229 7.84879 22.1073 7.76916L21.9487 7.40195C21.8377 7.44988 21.7128 7.46424 21.5904 7.44003L21.5128 7.83244ZM15.1509 9.78487L12.3811 12.5237L12.6623 12.8081L15.4321 10.0693L15.1509 9.78487ZM12.381 12.5237C12.042 12.8591 12.042 13.4036 12.381 13.739L12.6624 13.4547C12.4816 13.2758 12.4816 12.9869 12.6624 12.8081L12.381 12.5237ZM12.3811 13.7391C12.719 14.0732 13.266 14.0732 13.6039 13.7391L13.3227 13.4546C13.1406 13.6347 12.8444 13.6347 12.6623 13.4546L12.3811 13.7391ZM13.6039 13.7391L16.3753 10.9986L16.0941 10.7142L13.3227 13.4546L13.6039 13.7391ZM16.0726 10.9736C16.5165 11.5874 16.7774 12.3388 16.7774 13.1508H17.1774C17.1774 12.2515 16.8881 11.4187 16.3968 10.7392L16.0726 10.9736ZM16.7774 13.1508C16.7774 15.2197 15.0808 16.9005 12.983 16.9005V17.3005C15.2975 17.3005 17.1774 15.4448 17.1774 13.1508H16.7774ZM12.983 16.9005C10.8853 16.9005 9.18869 15.2197 9.18869 13.1508H8.78869C8.78869 15.4448 10.6686 17.3005 12.983 17.3005V16.9005ZM9.18869 13.1508C9.18869 11.0819 10.8853 9.40105 12.983 9.40105V9.00105C10.6686 9.00105 8.78869 10.8568 8.78869 13.1508H9.18869ZM12.983 9.40105C13.8008 9.40105 14.5575 9.65649 15.1767 10.0908L15.4064 9.76334C14.7218 9.28318 13.8853 9.00105 12.983 9.00105V9.40105Z" fill="#243070"/>
</svg>
