<svg width="28" height="26" viewBox="0 0 28 26" fill="none" xmlns="http://www.w3.org/2000/svg">
<path d="M22.9072 25.8444H4.6498C3.2878 25.8444 2.17969 24.7348 2.17969 23.3709V10.3574C2.17969 9.88228 2.56433 9.49707 3.03886 9.49707C3.51339 9.49707 3.89803 9.88228 3.89803 10.3574V23.3709C3.89803 23.786 4.23525 24.1237 4.6498 24.1237H22.9072C23.3217 24.1237 23.659 23.786 23.659 23.3709V10.3574C23.659 9.88228 24.0436 9.49707 24.5181 9.49707C24.9927 9.49707 25.3773 9.88228 25.3773 10.3574V23.3709C25.3773 24.7348 24.2692 25.8444 22.9072 25.8444Z" fill="#C66213"/>
<path d="M26.6957 13.3892C26.4753 13.3892 26.255 13.3048 26.0869 13.1361L15.3769 2.39048C14.4955 1.50616 13.0614 1.50616 12.18 2.39048L1.47008 13.1361C1.1338 13.4736 0.588531 13.4736 0.252251 13.1361C-0.0840836 12.7987 -0.0840836 12.2516 0.252251 11.9142L10.9622 1.16854C12.5151 -0.389513 15.0419 -0.389513 16.5947 1.16854L27.3046 11.9142C27.641 12.2516 27.641 12.7987 27.3046 13.1361C27.1365 13.3048 26.9161 13.3892 26.6957 13.3892Z" fill="#C66213"/>
<path fill-rule="evenodd" clip-rule="evenodd" d="M10.3534 25.8443H17.2037C17.6766 25.8443 18.0599 25.4583 18.0599 24.9821V17.3294C18.0599 15.8436 16.8595 14.6348 15.384 14.6348H12.173C10.6975 14.6348 9.49707 15.8436 9.49707 17.3294V24.9821C9.49707 25.4583 9.88042 25.8443 10.3534 25.8443ZM16.3474 24.1198H11.2096V17.3294C11.2096 16.7945 11.6418 16.3593 12.173 16.3593H15.384C15.9152 16.3593 16.3474 16.7945 16.3474 17.3294V24.1198Z" fill="#C66213"/>
</svg>
