<svg width="30" height="30" viewBox="0 0 30 30" fill="none" xmlns="http://www.w3.org/2000/svg">
<path d="M28.9991 22.005V26.2285C29.0007 26.6206 28.9204 27.0087 28.7633 27.3679C28.6063 27.7272 28.3759 28.0496 28.087 28.3147C27.798 28.5798 27.457 28.7816 27.0855 28.9072C26.7141 29.0328 26.3206 29.0794 25.9301 29.0442C21.5979 28.5734 17.4366 27.0931 13.7805 24.7221C10.3789 22.5606 7.49497 19.6767 5.33347 16.2751C2.9542 12.6024 1.47354 8.42081 1.01143 4.06921C0.976246 3.6799 1.02251 3.28753 1.14728 2.91708C1.27205 2.54662 1.47259 2.20621 1.73613 1.91751C1.99967 1.62881 2.32044 1.39814 2.67801 1.2402C3.03558 1.08226 3.42212 1.0005 3.81301 1.00014H8.03651C8.71974 0.993412 9.3821 1.23536 9.90014 1.68087C10.4182 2.12638 10.7566 2.74507 10.8522 3.42161C11.0304 4.77322 11.361 6.10033 11.8377 7.37762C12.0271 7.88151 12.0681 8.42915 11.9558 8.95563C11.8435 9.48211 11.5826 9.96537 11.2041 10.3481L9.41619 12.1361C11.4203 15.6607 14.3386 18.579 17.8632 20.5831L19.6511 18.7951C20.0339 18.4166 20.5172 18.1558 21.0436 18.0435C21.5701 17.9312 22.1178 17.9722 22.6217 18.1616C23.8989 18.6382 25.2261 18.9688 26.5777 19.1471C27.2615 19.2436 27.8861 19.588 28.3326 20.115C28.779 20.6419 29.0163 21.3146 28.9991 22.005Z" stroke="#ffffff" stroke-width="1.78343" stroke-linecap="round" stroke-linejoin="round"/>
</svg>
