<svg width="160" height="82" viewBox="0 0 160 82" fill="none" xmlns="http://www.w3.org/2000/svg">
<g filter="url(#filter0_d_4027_13390)">
<path d="M1.87695 57.2235L5.93521 54.8003C8.79221 60.0344 12.0929 62.6515 15.8373 62.6515C17.439 62.6515 18.9433 62.2853 20.3501 61.5529C21.7569 60.7991 22.8283 59.7976 23.5642 58.5482C24.3002 57.2988 24.6681 55.9742 24.6681 54.5741C24.6681 52.9801 24.127 51.4186 23.0448 49.8891C21.5514 47.7784 18.8243 45.2367 14.8633 42.2642C10.8808 39.2701 8.40261 37.1054 7.42864 35.77C5.74041 33.5299 4.89629 31.1066 4.89629 28.5003C4.89629 26.4325 5.3941 24.5477 6.38972 22.8461C7.38534 21.1445 8.78138 19.8091 10.5778 18.8398C12.3959 17.8489 14.3655 17.3535 16.4866 17.3535C18.7376 17.3535 20.8371 17.9136 22.7851 19.0335C24.7546 20.1321 26.8325 22.1676 29.0184 25.1402L25.1226 28.0803C23.3261 25.7108 21.7894 24.1494 20.5125 23.3954C19.2571 22.6414 17.8827 22.2646 16.3892 22.2646C14.4629 22.2646 12.8829 22.8461 11.6492 24.0092C10.4371 25.1725 9.83111 26.6048 9.83111 28.3064C9.83111 29.3403 10.0476 30.3419 10.4804 31.3113C10.9133 32.2805 11.7033 33.336 12.8505 34.4775C13.4781 35.0807 15.5343 36.6639 19.0189 39.2271C23.1529 42.2642 25.9884 44.9674 27.5251 47.3367C29.0618 49.7061 29.8302 52.0863 29.8302 54.4772C29.8302 57.9236 28.5098 60.9175 25.8694 63.4592C23.2504 66.0008 20.0578 67.2718 16.2918 67.2718C13.3916 67.2718 10.7618 66.507 8.40261 64.9777C6.04342 63.4268 3.86821 60.8422 1.87695 57.2235ZM74.3735 30.9235V66.0763H69.8932V60.0344C67.9885 62.3392 65.8458 64.0732 63.4648 65.2363C61.1057 66.3994 58.5192 66.981 55.7055 66.981C50.7057 66.981 46.431 65.1824 42.8815 61.5852C39.3534 57.9666 37.5896 53.5725 37.5896 48.403C37.5896 43.3412 39.3751 39.0117 42.9463 35.4146C46.5177 31.8175 50.814 30.0188 55.8354 30.0188C58.7357 30.0188 61.3547 30.6328 63.6922 31.8606C66.0513 33.0882 68.1183 34.93 69.8932 37.3854V30.9235H74.3735ZM56.1926 34.3807C53.6601 34.3807 51.3226 35.0053 49.1798 36.2546C47.0372 37.4824 45.3273 39.2164 44.0502 41.4565C42.7948 43.6966 42.1672 46.066 42.1672 48.5645C42.1672 51.0416 42.8057 53.411 44.0827 55.6727C45.3596 57.9342 47.0697 59.7005 49.2123 60.9714C51.3768 62.2206 53.6926 62.8454 56.1601 62.8454C58.6491 62.8454 61.0084 62.2206 63.2377 60.9714C65.467 59.7221 67.1769 58.0312 68.3673 55.8987C69.5793 53.7664 70.1853 51.3647 70.1853 48.6937C70.1853 44.6227 68.8326 41.2195 66.1271 38.484C63.4432 35.7484 60.1318 34.3807 56.1926 34.3807ZM83.9508 17.3535H88.4961V66.0763H83.9508V17.3535ZM156.155 34.7684L153.233 37.7731C150.809 35.4254 148.439 34.2515 146.123 34.2515C144.651 34.2515 143.385 34.7361 142.325 35.7053C141.286 36.6747 140.766 37.8055 140.766 39.0978C140.766 40.2395 141.199 41.3271 142.065 42.361C142.931 43.4165 144.749 44.6551 147.519 46.0768C150.896 47.8213 153.19 49.5016 154.402 51.1169C155.592 52.7541 156.188 54.5956 156.188 56.6419C156.188 59.5282 155.17 61.973 153.136 63.9761C151.101 65.9794 148.558 66.981 145.506 66.981C143.472 66.981 141.524 66.5394 139.663 65.6562C137.823 64.7732 136.297 63.5562 135.085 62.0053L137.942 58.7744C140.258 61.3806 142.714 62.6838 145.312 62.6838C147.13 62.6838 148.677 62.1022 149.954 60.9391C151.231 59.776 151.87 58.4082 151.87 56.8358C151.87 55.5433 151.448 54.391 150.603 53.3786C149.759 52.3879 147.855 51.1385 144.89 49.6308C141.708 47.9936 139.544 46.3783 138.396 44.7843C137.249 43.1905 136.676 41.3703 136.676 39.324C136.676 36.6531 137.585 34.4346 139.403 32.6683C141.243 30.902 143.558 30.0188 146.35 30.0188C149.597 30.0188 152.865 31.602 156.155 34.7684Z" fill="white"/>
<path d="M97.3584 30.9219H101.936V47.3351C101.936 51.3415 102.153 54.0986 102.585 55.6064C103.235 57.7604 104.468 59.4621 106.287 60.7112C108.126 61.9606 110.312 62.5852 112.845 62.5852C115.377 62.5852 117.52 61.9821 119.273 60.7759C121.048 59.5481 122.271 57.9434 122.942 55.9618C123.396 54.6048 123.623 51.7293 123.623 47.3351V30.9219H128.266V48.1751C128.266 53.0216 127.692 56.6726 126.545 59.1282C125.42 61.5836 123.71 63.5114 121.416 64.9116C119.143 66.2901 116.286 66.9794 112.845 66.9794C109.403 66.9794 106.524 66.2901 104.209 64.9116C101.914 63.5114 100.194 61.5728 99.0466 59.0959C97.921 56.5971 97.3584 52.8493 97.3584 47.852V30.9219Z" fill="white"/>
<path d="M120.075 26.6039C122.15 26.6039 123.832 24.9302 123.832 22.8654C123.832 20.8007 122.15 19.127 120.075 19.127C118 19.127 116.318 20.8007 116.318 22.8654C116.318 24.9302 118 26.6039 120.075 26.6039Z" fill="white"/>
<path d="M106.097 26.6039C108.172 26.6039 109.854 24.9302 109.854 22.8654C109.854 20.8007 108.172 19.127 106.097 19.127C104.023 19.127 102.341 20.8007 102.341 22.8654C102.341 24.9302 104.023 26.6039 106.097 26.6039Z" fill="white"/>
</g>
<defs>
<filter id="filter0_d_4027_13390" x="-0.119523" y="0" width="161.239" height="83.9637" filterUnits="userSpaceOnUse" color-interpolation-filters="sRGB">
<feFlood flood-opacity="0" result="BackgroundImageFix"/>
<feColorMatrix in="SourceAlpha" type="matrix" values="0 0 0 0 0 0 0 0 0 0 0 0 0 0 0 0 0 0 127 0" result="hardAlpha"/>
<feOffset dy="1.11952"/>
<feGaussianBlur stdDeviation="0.559762"/>
<feComposite in2="hardAlpha" operator="out"/>
<feColorMatrix type="matrix" values="0 0 0 0 0 0 0 0 0 0 0 0 0 0 0 0 0 0 0.25 0"/>
<feBlend mode="normal" in2="BackgroundImageFix" result="effect1_dropShadow_4027_13390"/>
<feBlend mode="normal" in="SourceGraphic" in2="effect1_dropShadow_4027_13390" result="shape"/>
</filter>
</defs>
</svg>
